<svg width="45" height="45" viewBox="0 0 45 45" fill="none" xmlns="http://www.w3.org/2000/svg">
<rect width="45" height="45" rx="22.5" fill="black"/>
<path d="M26.0974 15.0587C26.1215 14.9803 26.13 14.8978 26.1222 14.8161C26.1145 14.7344 26.0907 14.655 26.0523 14.5824C26.0139 14.5099 25.9616 14.4456 25.8983 14.3933C25.8351 14.341 25.7621 14.3016 25.6836 14.2775C25.6052 14.2534 25.5227 14.2449 25.441 14.2527C25.3593 14.2604 25.2799 14.2841 25.2073 14.3226C25.1348 14.361 25.0705 14.4133 25.0182 14.4766C24.9659 14.5398 24.9265 14.6128 24.9024 14.6912L19.9024 30.9412C19.8537 31.0997 19.8699 31.271 19.9475 31.4176C20.0251 31.5641 20.1577 31.6738 20.3161 31.7225C20.4746 31.7712 20.6459 31.755 20.7925 31.6774C20.939 31.5998 21.0487 31.4672 21.0974 31.3087L26.0974 15.0587ZM19.0674 18.1825C19.1256 18.2406 19.1718 18.3095 19.2033 18.3855C19.2348 18.4614 19.251 18.5428 19.251 18.625C19.251 18.7072 19.2348 18.7886 19.2033 18.8645C19.1718 18.9405 19.1256 19.0094 19.0674 19.0675L15.1336 23L19.0674 26.9325C19.1848 27.0499 19.2507 27.209 19.2507 27.375C19.2507 27.541 19.1848 27.7001 19.0674 27.8175C18.95 27.9349 18.7909 28.0008 18.6249 28.0008C18.4589 28.0008 18.2998 27.9349 18.1824 27.8175L13.8074 23.4425C13.7492 23.3844 13.703 23.3155 13.6715 23.2395C13.64 23.1636 13.6238 23.0822 13.6238 23C13.6238 22.9178 13.64 22.8364 13.6715 22.7605C13.703 22.6845 13.7492 22.6156 13.8074 22.5575L18.1824 18.1825C18.2405 18.1243 18.3094 18.0781 18.3854 18.0466C18.4613 18.0151 18.5427 17.9989 18.6249 17.9989C18.7071 17.9989 18.7885 18.0151 18.8644 18.0466C18.9404 18.0781 19.0093 18.1243 19.0674 18.1825ZM26.9324 18.1825C26.8742 18.2406 26.828 18.3095 26.7965 18.3855C26.765 18.4614 26.7488 18.5428 26.7488 18.625C26.7488 18.7072 26.765 18.7886 26.7965 18.8645C26.828 18.9405 26.8742 19.0094 26.9324 19.0675L30.8661 23L26.9324 26.9325C26.8743 26.9906 26.8282 27.0596 26.7967 27.1355C26.7653 27.2114 26.7491 27.2928 26.7491 27.375C26.7491 27.4572 26.7653 27.5386 26.7967 27.6145C26.8282 27.6904 26.8743 27.7594 26.9324 27.8175C26.9905 27.8756 27.0595 27.9217 27.1354 27.9531C27.2113 27.9846 27.2927 28.0008 27.3749 28.0008C27.4571 28.0008 27.5385 27.9846 27.6144 27.9531C27.6903 27.9217 27.7593 27.8756 27.8174 27.8175L32.1924 23.4425C32.2506 23.3844 32.2968 23.3155 32.3283 23.2395C32.3598 23.1636 32.376 23.0822 32.376 23C32.376 22.9178 32.3598 22.8364 32.3283 22.7605C32.2968 22.6845 32.2506 22.6156 32.1924 22.5575L27.8174 18.1825C27.7593 18.1243 27.6904 18.0781 27.6144 18.0466C27.5385 18.0151 27.4571 17.9989 27.3749 17.9989C27.2927 17.9989 27.2113 18.0151 27.1354 18.0466C27.0594 18.0781 26.9905 18.1243 26.9324 18.1825Z" fill="white"/>
</svg>
